<svg height="346.256304" viewBox="0 0 159.00146 190.5" width="288.803406" xmlns="http://www.w3.org/2000/svg" xmlns:xlink="http://www.w3.org/1999/xlink"><clipPath id="a"><path d="m-32768 32767h65535v-65535h-65535z"/></clipPath><linearGradient id="b" gradientTransform="matrix(7.3706115 17.932616 17.932616 -7.3706115 63.7411 748.20495)" gradientUnits="userSpaceOnUse" spreadMethod="pad" x1="0" x2="1" y1="0" y2="0"><stop offset="0" stop-color="#858380"/><stop offset="1" stop-color="#a19f9c"/></linearGradient><clipPath id="c"><path d="m-32768 32767h65535v-65535h-65535z"/></clipPath><linearGradient id="d" gradientTransform="matrix(9.9825051 -26.373515 -26.373515 -9.9825051 67.671249 790.91963)" gradientUnits="userSpaceOnUse" spreadMethod="pad" x1="0" x2="1" y1="0" y2="0"><stop offset="0" stop-color="#9d9b98"/><stop offset="1" stop-color="#797775"/></linearGradient><clipPath id="e"><path d="m-32768 32767h65535v-65535h-65535z"/></clipPath><linearGradient id="f" gradientTransform="matrix(-29.15256 -50.315088 -50.315088 29.15256 77.869298 770.23578)" gradientUnits="userSpaceOnUse" spreadMethod="pad" x1="0" x2="1" y1="0" y2="0"><stop offset="0" stop-color="#797775"/><stop offset=".842522" stop-color="#f2efea"/><stop offset="1" stop-color="#f2efea"/></linearGradient><clipPath id="g"><path d="m-32768 32767h65535v-65535h-65535z"/></clipPath><linearGradient id="h"><stop offset="0" stop-color="#9d9b98"/><stop offset="1" stop-color="#f2efea"/></linearGradient><linearGradient id="i" gradientTransform="matrix(0 58.214265 58.214265 0 64.575083 721.92)" gradientUnits="userSpaceOnUse" spreadMethod="pad" x1="0" x2="1" xlink:href="#h" y1="0" y2="0"/><clipPath id="j"><path d="m-32768 32767h65535v-65535h-65535z"/></clipPath><linearGradient id="k" gradientTransform="matrix(-15.182633 42.212989 42.212989 15.182633 84.516249 744.93583)" gradientUnits="userSpaceOnUse" spreadMethod="pad" x1="0" x2="1" xlink:href="#h" y1="0" y2="0"/><clipPath id="l"><path d="m-32768 32767h65535v-65535h-65535z"/></clipPath><linearGradient id="m" gradientTransform="matrix(-23.072172 64.14865 64.14865 23.072172 83.547746 719.81858)" gradientUnits="userSpaceOnUse" spreadMethod="pad" x1="0" x2="1" y1="0" y2="0"><stop offset="0" stop-color="#44433e"/><stop offset="1" stop-color="#f2efea"/></linearGradient><clipPath id="n"><path d="m-32768 32767h65535v-65535h-65535z"/></clipPath><linearGradient id="o" gradientTransform="matrix(0 -28.636007 -28.636007 0 69.377722 781.49277)" gradientUnits="userSpaceOnUse" spreadMethod="pad" x1="0" x2="1" y1="0" y2="0"><stop offset="0" stop-color="#f2efea"/><stop offset="1" stop-color="#f2efea"/></linearGradient><linearGradient id="p" gradientTransform="matrix(6.8208484 -4.4185343 4.4185343 6.8208484 -266.57372 327.27921)" gradientUnits="userSpaceOnUse" spreadMethod="pad" x1="0" x2="1" y1="0" y2="0"><stop offset="0" stop-color="#faf6f2"/><stop offset="1" stop-color="#fffbf7"/></linearGradient><clipPath id="q"><path d="m-32768 32767h65535v-65535h-65535z"/></clipPath><linearGradient id="r" gradientTransform="matrix(10.655506 0 0 -10.655506 58.590797 787.81651)" gradientUnits="userSpaceOnUse" spreadMethod="pad" x1="0" x2="1" y1="0" y2="0"><stop offset="0" stop-color="#b0aeab"/><stop offset="1" stop-color="#faf6f2"/></linearGradient><clipPath id="s"><path d="m-32768 32767h65535v-65535h-65535z"/></clipPath><linearGradient id="t" gradientTransform="matrix(-14.583661 7.9124183 7.9124183 14.583661 85.944231 781.69148)" gradientUnits="userSpaceOnUse" spreadMethod="pad" x1="0" x2="1" y1="0" y2="0"><stop offset="0" stop-color="#fffbf7"/><stop offset=".527027" stop-color="#fffbf7"/><stop offset="1" stop-color="#b4b2af"/></linearGradient><clipPath id="u"><path d="m-32768 32767h65535v-65535h-65535z"/></clipPath><linearGradient id="v" gradientTransform="matrix(17.779772 0 0 -17.779772 61.636719 789.15974)" gradientUnits="userSpaceOnUse" spreadMethod="pad" x1="0" x2="1" y1="0" y2="0"><stop offset="0" stop-color="#ccc9c6"/><stop offset="1" stop-color="#faf6f2"/></linearGradient><clipPath id="w"><path d="m-32768 32767h65535v-65535h-65535z"/></clipPath><linearGradient id="x" gradientTransform="matrix(-1.9034606 -32.99297 -32.99297 1.9034606 57.846237 786.49407)" gradientUnits="userSpaceOnUse" spreadMethod="pad" x1="0" x2="1" y1="0" y2="0"><stop offset="0" stop-color="#fffbf7"/><stop offset="1" stop-color="#fffbf7"/></linearGradient><clipPath id="y"><path d="m-32768 32767h65535v-65535h-65535z"/></clipPath><linearGradient id="z" gradientTransform="matrix(19.466364 0 0 -19.466364 62.846001 738.24958)" gradientUnits="userSpaceOnUse" spreadMethod="pad" x1="0" x2="1" y1="0" y2="0"><stop offset="0" stop-color="#dad7d3"/><stop offset="1" stop-color="#faf6f2"/></linearGradient><clipPath id="A"><path d="m-32768 32767h65535v-65535h-65535z"/></clipPath><linearGradient id="B" gradientTransform="matrix(-.6521801 12.326199 12.326199 .6521801 62.369037 766.09586)" gradientUnits="userSpaceOnUse" spreadMethod="pad" x1="0" x2="1" y1="0" y2="0"><stop offset="0" stop-color="#bbb8b5"/><stop offset="1" stop-color="#faf6f2"/></linearGradient><linearGradient id="C" gradientTransform="matrix(-6.7654563 -27.822866 27.822866 -6.7654563 -257.39553 372.29487)" gradientUnits="userSpaceOnUse" spreadMethod="pad" x1="0" x2="1" y1="0" y2="0"><stop offset="0" stop-color="#faf6f2"/><stop offset=".512418" stop-color="#fffbf7"/><stop offset=".677314" stop-color="#fffbf7"/><stop offset=".90099" stop-color="#ebe7e3"/><stop offset="1" stop-color="#ccc9c6"/></linearGradient><linearGradient id="D"><stop offset="0" stop-color="#791426"/><stop offset=".534653" stop-color="#af1c3b"/><stop offset="1" stop-color="#791426"/></linearGradient><linearGradient id="E" gradientTransform="matrix(-4.5647064 7.8783339 -7.8783339 -4.5647064 -266.5644 328.36408)" gradientUnits="userSpaceOnUse" spreadMethod="pad" x1="0" x2="1" xlink:href="#D" y1="0" y2="0"/><linearGradient id="F" gradientTransform="matrix(-4.5650113 7.8788597 -7.8788597 -4.5650113 -267.4302 327.86235)" gradientUnits="userSpaceOnUse" spreadMethod="pad" x1="0" x2="1" xlink:href="#D" y1="0" y2="0"/><linearGradient id="G" gradientTransform="matrix(-4.5645912 7.8781351 -7.8781351 -4.5645912 -265.18719 329.16221)" gradientUnits="userSpaceOnUse" spreadMethod="pad" x1="0" x2="1" xlink:href="#D" y1="0" y2="0"/><linearGradient id="H" gradientTransform="matrix(17.224268 -40.907545 40.907545 17.224268 -265.07442 392.11187)" gradientUnits="userSpaceOnUse" spreadMethod="pad" x1="0" x2="1" xlink:href="#D" y1="0" y2="0"/><linearGradient id="I" gradientTransform="matrix(20.079136 44.939015 -44.939015 20.079136 -265.3163 342.15722)" gradientUnits="userSpaceOnUse" spreadMethod="pad" x1="0" x2="1" xlink:href="#D" y1="0" y2="0"/><mask id="J" maskUnits="userSpaceOnUse"><g clip-path="url(#c)" transform="matrix(.99999998712 0 0 .99999998712 .00000498427 -.00007711763)"><path d="m83.332 793.642 16.722-44.177-34.947-13.227-16.722 44.177z" fill="url(#L)"/></g></mask><linearGradient id="K"><stop offset="0" stop-color="#fff"/><stop offset=".57374322" stop-color="#fff" stop-opacity="0"/><stop offset="1" stop-color="#fff" stop-opacity="0"/></linearGradient><linearGradient id="L" gradientTransform="matrix(9.9825051 -26.373515 -26.373515 -9.9825051 67.671188 790.91963)" gradientUnits="userSpaceOnUse" spreadMethod="pad" x1="0" x2="1" xlink:href="#K" y1="0" y2="0"/><mask id="M" maskUnits="userSpaceOnUse"><g clip-path="url(#s)" transform="matrix(.99999998712 0 0 .99999998712 .00000498427 -.00007711763)"><path d="m81.33 777.949-11.798 6.401 4.795 8.839 11.798-6.401z" fill="url(#N)"/></g></mask><linearGradient id="N" gradientTransform="matrix(-14.583661 7.9124183 7.9124183 14.583661 85.944231 781.69148)" gradientUnits="userSpaceOnUse" spreadMethod="pad" x1="0" x2="1" y1="0" y2="0"><stop offset="0" stop-color="#fff" stop-opacity=".8"/><stop offset=".0477852" stop-color="#fff" stop-opacity=".8"/><stop offset=".527027" stop-color="#fff" stop-opacity=".602228"/><stop offset=".53762916" stop-color="#fff" stop-opacity=".602228"/><stop offset="1" stop-color="#fff" stop-opacity=".4"/></linearGradient><mask id="O" maskUnits="userSpaceOnUse"><g clip-path="url(#y)" transform="matrix(.99999998712 0 0 .99999998712 .00000498427 -.00007711763)"><path d="m62.846 758.914h20.135v-41.628h-20.135z" fill="url(#Q)"/></g></mask><linearGradient id="P"><stop offset="0" stop-color="#fff"/><stop offset=".09066936" stop-color="#fff"/><stop offset="1" stop-color="#fff" stop-opacity="0"/></linearGradient><linearGradient id="Q" gradientTransform="matrix(19.466364 0 0 -19.466364 62.846032 738.24958)" gradientUnits="userSpaceOnUse" spreadMethod="pad" x1="0" x2="1" xlink:href="#P" y1="0" y2="0"/><mask id="R" maskUnits="userSpaceOnUse"><g clip-path="url(#w)" transform="matrix(.99999998712 0 0 .99999998712 .00000498427 -.00007711763)"><path d="m62.417 786.279-1.967-34.09-10.282.593 1.966 34.09z" fill="url(#T)"/></g></mask><linearGradient id="S"><stop offset="0" stop-color="#fff" stop-opacity=".8"/><stop offset=".09066936" stop-color="#fff" stop-opacity=".8"/><stop offset="1" stop-color="#fff" stop-opacity="0"/></linearGradient><linearGradient id="T" gradientTransform="matrix(-1.9034606 -32.99297 -32.99297 1.9034606 57.846237 786.49402)" gradientUnits="userSpaceOnUse" spreadMethod="pad" x1="0" x2="1" xlink:href="#S" y1="0" y2="0"/><mask id="U" maskUnits="userSpaceOnUse"><g clip-path="url(#q)" transform="matrix(.99999998712 0 0 .99999998712 .00000498427 -.00007711763)"><path d="m58.591 789.495h10.655v-3.357h-10.655z" fill="url(#V)"/></g></mask><linearGradient id="V" gradientTransform="matrix(10.655506 0 0 -10.655506 58.590797 787.81651)" gradientUnits="userSpaceOnUse" spreadMethod="pad" x1="0" x2="1" xlink:href="#S" y1="0" y2="0"/><mask id="W" maskUnits="userSpaceOnUse"><g clip-path="url(#A)" transform="matrix(.99999998712 0 0 .99999998712 .00000498427 -.00007711763)"><path d="m54.861 756.421-1.537 29.049 13.404.709 1.537-29.048z" fill="url(#X)"/></g></mask><linearGradient id="X" gradientTransform="matrix(-.6521801 12.326199 12.326199 .6521801 62.36907 766.09585)" gradientUnits="userSpaceOnUse" spreadMethod="pad" x1="0" x2="1" xlink:href="#P" y1="0" y2="0"/><mask id="Y" maskUnits="userSpaceOnUse"><g clip-path="url(#n)" transform="matrix(.99999998712 0 0 .99999998712 .00000498427 -.00007711763)"><path d="m77.147 751.771h-14.195v29.141h14.195z" fill="url(#Z)"/></g></mask><linearGradient id="Z" gradientTransform="matrix(0 -28.636007 -28.636007 0 69.377722 781.49272)" gradientUnits="userSpaceOnUse" spreadMethod="pad" x1="0" x2="1" y1="0" y2="0"><stop offset="0" stop-color="#fff" stop-opacity=".2"/><stop offset="1" stop-color="#fff" stop-opacity=".8"/></linearGradient><mask id="aa" maskUnits="userSpaceOnUse"><g clip-path="url(#u)" transform="matrix(.99999998712 0 0 .99999998712 .00000498427 -.00007711763)"><path d="m61.637 790.406h17.78v-2.492h-17.78z" fill="url(#ab)"/></g></mask><linearGradient id="ab" gradientTransform="matrix(17.77977 0 0 -17.77977 61.636689 789.15973)" gradientUnits="userSpaceOnUse" spreadMethod="pad" x1="0" x2="1" xlink:href="#P" y1="0" y2="0"/><mask id="ac" maskUnits="userSpaceOnUse"><g clip-path="url(#a)" transform="matrix(.99999998712 0 0 .99999998712 .00000498427 -.00007711763)"><path d="m47.88 751.093 17.634 42.903 34.629-14.233-17.634-42.903z" fill="url(#ad)"/></g></mask><linearGradient id="ad" gradientTransform="matrix(7.3706115 17.932616 17.932616 -7.3706115 63.741069 748.20495)" gradientUnits="userSpaceOnUse" spreadMethod="pad" x1="0" x2="1" xlink:href="#K" y1="0" y2="0"/><mask id="ae" maskUnits="userSpaceOnUse"><g clip-path="url(#j)" transform="matrix(.99999998712 0 0 .99999998712 .00000498427 -.00007711763)"><path d="m64.995 736.399-16.511 45.906 36.267 13.044 16.511-45.906z" fill="url(#ag)"/></g></mask><linearGradient id="af"><stop offset="0" stop-color="#fff"/><stop offset=".01865536" stop-color="#fff"/><stop offset="1" stop-color="#fff" stop-opacity=".8"/></linearGradient><linearGradient id="ag" gradientTransform="matrix(-15.182632 42.212989 42.212989 15.182632 84.516269 744.93587)" gradientUnits="userSpaceOnUse" spreadMethod="pad" x1="0" x2="1" xlink:href="#af" y1="0" y2="0"/><mask id="ah" maskUnits="userSpaceOnUse"><g clip-path="url(#g)" transform="matrix(.99999998712 0 0 .99999998712 .00000498427 -.00007711763)"><path d="m58.788 743.773h12.968v-25.36h-12.968z" fill="url(#ai)"/></g></mask><linearGradient id="ai" gradientTransform="matrix(0 58.214274 58.214274 0 64.575082 721.92005)" gradientUnits="userSpaceOnUse" spreadMethod="pad" x1="0" x2="1" xlink:href="#af" y1="0" y2="0"/><mask id="aj" maskUnits="userSpaceOnUse"><g clip-path="url(#e)" transform="matrix(.99999998712 0 0 .99999998712 .00000498427 -.00007711763)"><path d="m117.364 768.953-34.915-60.26-49.242 28.53 34.915 60.261z" fill="url(#ak)"/></g></mask><linearGradient id="ak" gradientTransform="matrix(-29.15256 -50.315088 -50.315088 29.15256 77.869237 770.23578)" gradientUnits="userSpaceOnUse" spreadMethod="pad" x1="0" x2="1" y1="0" y2="0"><stop offset="0" stop-color="#fff" stop-opacity=".8"/><stop offset=".15984256" stop-color="#fff" stop-opacity=".8"/><stop offset=".842522" stop-color="#fff"/><stop offset="1" stop-color="#fff"/></linearGradient><mask id="al" maskUnits="userSpaceOnUse"><g clip-path="url(#l)" transform="matrix(.99999998712 0 0 .99999998712 .00000498427 -.00007711763)"><path d="m62.511 709.222-24.9 69.231 45.529 16.375 24.9-69.23z" fill="url(#am)"/></g></mask><linearGradient id="am" gradientTransform="matrix(-23.07217 64.148651 64.148651 23.07217 83.547765 719.81857)" gradientUnits="userSpaceOnUse" spreadMethod="pad" x1="0" x2="1" y1="0" y2="0"><stop offset="0" stop-color="#fff"/><stop offset=".01865536" stop-color="#fff"/><stop offset="1" stop-color="#fff" stop-opacity="0"/></linearGradient><g transform="matrix(2.416103 0 0 2.416103 705.86519 -777.40374)"><path d="m-260.19902 348.96829c-1.81631-3.04855-3.49352-5.8706-4.56991-8.5805-.35685-1.09896-.63723-2.18117-.81056-3.21823-.6103-2.96844-.3554-4.71192.77852-7.11449.024-.0503.0495-.10196.0757-.15367.53965-.30806 1.28321-.595 2.13529-.67875 1.89861-.18716 5.12267.29422 6.35563 3.76226 1.3007 3.66393-1.4762 10.80755-3.96471 15.98338m11.72591-20.6618c-.12381-.23815-.58335-1.09969-.74138-1.39464-.0299-.0546-.0495-.0903-.0539-.0983-2.00566-3.68287-2.07339-2.98519-3.32529-3.20658-.0466-.008-.0947-.0204-.14128-.032-1.42596-.32845-3.87659-1.25699-5.07387-1.69687-1.23734-.45299-4.49344.52144-6.59523.72827-.53455.0517-.94894.15003-1.27958.27893-.96641.37506-1.20674 1.0123-1.60584 1.53447-.23304.30587-.39618.39836-.61247.44934-.004.00073-.0102.00073-.0131.002-1.63497.58626-5.49773 5.35134-4.66313 11.92691.0597.64525.19518 1.27374.36924 1.88913 1.5971 6.31048 6.94189 14.77373 8.25423 17.17557-.96714 2.2256-3.03107 6.79551-3.68942 11.09959-.0269.14566-.18644 1.13465-.19664 1.96488-.0874 2.18773.32263 4.18975 1.59128 5.62736.008.009.24907.26727.25999.27893.64889.63942 1.41358 1.0458 2.18336 1.28977 1.08949.469 1.91827.20683 2.72009.0706.35759.21702.73192.38453 1.1128.51489 2.2926.79236 4.85758.15658 6.05923-.51489 1.61166-.52363 2.34649-1.46965 2.80676-2.93639.46391-1.38154 1.17397-4.20068-.43332-8.37295-.72172-1.80174-2.1739-4.62161-4.41115-8.72032l-.0146-.024c1.79373-3.39447 6.59668-11.79363 7.45168-14.24791.0466-.12963.0867-.2549.12671-.38016 1.45218-3.71564 2.40039-8.63075-.0852-13.20575" fill="#fff"/><path d="m-261.5622 360.35016c-.5178-.99846-1.65099-3.17381-1.89278-3.69088-2.63343 5.1314-3.28305 10.83013-3.32456 12.48622.0277 1.27302 0 3.20367 1.80029 4.02589 2.38873-3.25319-1.80029-8.11368 3.41705-12.82123" fill="#aca9a6"/><path d="m-255.51653 343.23716c.61612-3.05947 2.15204-5.66814.20173-9.92052-1.60657-3.5008-4.37182-4.75343-7.27616-4.09362h.00072c1.90007-.18716 5.12485.29277 6.35636 3.76226 1.3007 3.66393-1.47621 10.80755-3.96471 15.98338-.0568.12162-.11871.24324-.17697.36414 1.20966 2.0996 2.19938 3.90645 3.38064 6.04028 0 0 1.592-2.56934 2.25327-3.73312-1.35604-3.14176-1.15941-6.49691-.77488-8.4028" fill="#aca9a6"/><path d="m-247.9709 333.25896c-.001-.1056-.001-.21338-.004-.31461v-.0175c-.00073-.0459-.003-.0867-.003-.13182-.0168-.45808-.0488-.85426-.0925-1.18198-.0466-.32263-.10269-.56296-.1544-.73483-.23013-.68967-.78216-1.51408-1.4143-2.30717-1.23661-1.55194-2.78055-2.9779-2.82861-3.02305-.0976.043-.19736.0947-.30078.15439-1.3189.78945-1.28831 1.86146-5.86841-.33209-.69186-.33137-1.77335-.12162-2.37854-.0816 4.63108 3.43963 9.71369 3.29252 13.04408 7.97021" fill="#bcbab7"/><path d="m-251.52407 346.20508c.17697-.26728.33719-.51562.48066-.74138.17114-.28039.33355-.56732.48721-.85791.0699-.13181.13765-.26509.20392-.39909 1.8804-3.78483 2.40767-8.20107 2.38072-10.94811-2.35669-6.84721-9.22793-3.79357-11.42877-8.0627-.0364.002-1.68449.0983-1.71945.10196.10778.13764.21921.2731.33646.40856.87247.99628 2.916 3.01796 5.11393 3.53357 2.19938.51635 4.04336.83679 5.899 3.60058 1.85564 2.76598-.11798 6.66296-1.85564 10.49003-.69331 1.52646-.7625 3.0602-.86373 4.57428.28257-.39036.34375-.8448.67875-1.29487.0976-.13255.19299-.268.28694-.40492" fill="#ccc9c6"/><path d="m-249.7701 332.84137c-1.85637-2.76525-3.69962-3.08569-5.899-3.6013-2.19866-.51489-4.24146-2.53803-5.11393-3.53431-.11725-.134-.22868-.27092-.33646-.4071-1.51626.14784-2.73248 1.36259-3.55324 3.10171-.28184.59791-.5178 1.25699-.70351 1.95468.60738-.52581 1.63497-1.01958 2.78637-1.13174 2.90289-.66054 5.6696.59209 7.27544 4.09435 1.95104 4.25092.41438 6.86105-.20246 9.91906-.38453 1.90589-.58044 5.26104.77488 8.40281.47119-.82951.98025-1.97653 2.25254-3.73385.10123-1.51554.16969-3.04928.863-4.57428 1.73839-3.8278 3.71128-7.72551 1.85637-10.49003" fill="#bbb8b5"/><path d="m68.049 785.562c-.05-.003-.098-.01-.147-.012-2.082-.206-3.75-1.871-4.879-4.261-.386-.822-.711-1.726-.964-2.686.251.217.55.429.892.624.743.422 1.764.817 2.934.932 2.607.256 7.036-.404 8.726-5.165 1.787-5.032-2.026-14.841-5.443-21.948 1.659-2.883 2.676-4.711 4.556-7.78s8.129 12.394 8.221 12.578c2.581 5.197 4.019 11.571 3.634 16.678-.614 8.19-5.729 10.621-5.795 10.682-.134-.058-.272-.13-.413-.211-1.81-1.085-1.857-2.816-8.146.195-.673.324-1.57.402-2.33.402-.313 0-.604-.012-.846-.028" fill="url(#b)" mask="url(#ac)" transform="matrix(.72827196 0 0 -.72827196 -310.57192 897.39058)"/><path d="m-262.92873 356.12284c-2.05009 2.8592-5.19695 18.1398-.62194 17.60452 7.18221-1.00575 1.57379-15.65566.62194-17.60452" fill="#9a9794"/><path d="m68.049 785.562c-.05-.003-.098-.01-.147-.012-2.082-.206-3.75-1.871-4.879-4.261-.386-.822-.711-1.726-.964-2.686.251.217.55.429.892.624.743.422 1.764.817 2.934.932 2.607.256 7.036-.404 8.726-5.165 1.787-5.032-2.026-14.841-5.443-21.948 1.659-2.883 3.088-5.827 4.713-8.756s8.717 15.109 8.807 15.294c2.583 5.198 3.692 11.283 3.271 15.033-.43 3.811-1.175 5.175-2.111 6.58-.327.492-3.998 3.946-4.064 4.007-.134-.058-.272-.13-.413-.211-1.81-1.085-1.857-2.816-8.146.195-.673.324-1.57.402-2.33.402-.313 0-.604-.012-.846-.028" fill="url(#d)" mask="url(#J)" transform="matrix(.72827196 0 0 -.72827196 -310.57192 897.39058)"/><path d="m72.002 783.008c-2.681-.028-4.642-.901-4.706-1.524 12.524-.41 13.529-9.172 1.286-31.313-4.642-8.395-6.486-16.113-6.509-21.298v-.195c.014-3.269.767-5.496 2.001-6.197.423-.24.876-.353 1.324-.36h.077c1.937.027 3.73 2.061 2.473 4.66-1.564 3.232-.243 9.899 3.758 17.182 4 7.286 17.983 27.314 9.373 35.451-2.863 2.706-6.163 3.567-8.816 3.594z" fill="url(#f)" mask="url(#aj)" opacity=".279999" transform="matrix(.72827196 0 0 -.72827196 -310.57192 897.39058)"/><path d="m-262.3716 328.06237c.51343-.16677 1.04944-.25926 1.58545-.31534.53819-.0575 1.08148-.067 1.62186-.0313 1.08148.0721 2.16588.33646 3.13521.86228.97079.51998 1.79373 1.31161 2.38728 2.24744.29276.47047.53309.97152.73264 1.48786.18352.51999.34083 1.04872.45007 1.59055.44497 2.17316.24106 4.42352-.21047 6.56537-.45881 2.14986-1.16596 4.23272-1.9911 6.24566-.81857 2.01804-1.77261 3.96617-2.74194 5.89245l-1.47475 2.87012-1.44635 2.86648c-.93073 1.91681-1.83015 3.84673-2.45209 5.8553-.15731.50178-.28694 1.00866-.3889 1.52209-.10924.50979-.18716 1.02759-.21484 1.54612-.0634 1.03779.0517 2.09597.46828 3.08351l-.12526.0663c-.60592-.91689-.90452-2.03625-.97297-3.14759-.075-1.11426.0597-2.22997.28329-3.31145.21484-1.08586.54621-2.13748.90379-3.17163.35758-1.0356.77707-2.04353 1.20966-3.04126 1.74785-3.98074 3.80522-7.7612 5.62954-11.6123.45007-.96569.89723-1.93065 1.29268-2.91454.40274-.98171.77197-1.9758 1.06984-2.98883.60009-2.01877.94019-4.14678.63214-6.2311-.0677-.51998-.20902-1.02977-.3605-1.53155-.16896-.49595-.37724-.97807-.63432-1.43397-.52509-.90451-1.27011-1.68231-2.18045-2.21904-.9067-.54038-1.95104-.84334-3.01213-.95622-.53164-.0561-1.06838-.0685-1.60366-.0342-.53455.0357-1.06983.1056-1.58836.25125z" fill="#797775" opacity=".330002"/><path d="m58.788 727.017c0-4.306 1.997-6.824 3.589-7.846.509-.327 1.368-.556 2.279-.575h.241c.372.008.748.051 1.109.139 2.454.598 4.312 3.06 4.355 7.641v.33c-.017 1.83-.316 3.986-.969 6.481-.218.835-1.96 4.613-2.306 5.282-.711 1.37-2.347 4.594-2.68 5.304-2.845-6.431-5.561-14.478-5.618-16.756" fill="url(#i)" mask="url(#ah)" opacity=".550003" transform="matrix(.72827196 0 0 -.72827196 -310.57192 897.39058)"/><path d="m63.023 781.289c-.386-.822-.709-1.726-.964-2.686.249.217.551.429.893.624.742.422 1.763.817 2.931.932 2.609.256 7.036-.404 8.729-5.165 1.786-5.032-2.027-14.841-5.444-21.948 1.659-2.883 3.195-5.556 4.816-8.485s8.614 14.838 8.704 15.023c2.583 5.197 4.999 14.938.981 21.47-1.428 2.321-3.477 4.062-3.545 4.123-.268-.04-.612-.103-.753-.184-1.81-1.085-1.181-1.966-7.59.78-.524.225-1.076.325-1.636.325-2.96 0-6.173-2.801-7.122-4.809" fill="url(#k)" mask="url(#ae)" opacity=".440002" transform="matrix(.72827196 0 0 -.72827196 -310.57192 897.39058)"/><path d="m70.157 785.642c-2.085-.015-4.42-1.718-5.289-2.693-1.01-1.135-2.554-3.386-2.809-4.346.834.721 2.244 1.401 3.824 1.556 2.609.256 7.036-.404 8.729-5.165 1.786-5.032-2.027-14.841-5.444-21.948-.08-.167-.162-.335-.243-.5-.343-.609-4.377-8.367-4.519-8.773-2.492-7.188-4.903-14.553-4.96-16.83 0-3.899 1.382-8.275 5.258-8.336h.164c.359.005.737.047 1.138.128 3.688.753 4.605 6.778 4.051 9.882s-1.19 5.044-1.246 5.149 7.322 14.682 7.85 15.612c.644 1.139 5.937 10.021 6.027 10.206 2.583 5.197 3.518 11.269 3.27 15.033-.087 1.325-1.422 5.347-2.289 6.437-1.699 2.131-4.157 4.02-4.298 3.939-1.81-1.085-1.525-1.98-8.056.456-.349.13-.716.19-1.092.193z" fill="url(#m)" mask="url(#al)" opacity=".440002" transform="matrix(.72827196 0 0 -.72827196 -310.57192 897.39058)"/><path d="m65.815 780.863c-.339-.035-1.523-.266-2.243-.505l-.389-.596-.232-.535c.743.422 1.764.817 2.934.932 2.607.256 7.036-.404 8.726-5.165 1.787-5.032-2.026-14.841-5.443-21.948-.074-.155-.15-.308-.224-.462.55-.462.983-.813.983-.813.103.17.166.31.258.485 3.518 7.332 6.962 17.716 5.094 22.973-.727 2.043-1.983 3.573-3.734 4.545-.11.06-.775.381-1.006.469-.112.046-.224.088-.337.128-.219.076-.9.262-1.012.287-.426.098-.868.168-1.316.208-.334.032-.675.046-1.012.046-.353 0-.707-.015-1.047-.049" fill="url(#o)" mask="url(#Y)" transform="matrix(.72827196 0 0 -.72827196 -310.57192 897.39058)"/><path d="m-256.88029 354.6341c-.19955-.33428-.31825-.5178-.31898-.51853-.075-.12672-.14566-.24688-.21848-.36851-2.76161-4.96535-5.73515-9.2891-7.35191-13.35869-.35613-1.09896-.63651-2.1819-.81057-3.2175-.60956-2.9699-.35467-4.71338.77925-7.11522 1.09023-2.31154 4.38711-5.19622 6.23183-4.31283 3.97782 1.90443 4.50727.98536 5.46641.20319.0299-.0226.10487-.0779.13546-.10633.0211-.016.14274-.0947.16313-.10924 10.42885 8.01609-.75085 23.50935-4.07614 28.90366m-6.36291 18.78505c-.27456.043-.53747.0503-.78872.024-.41584-.0553-.83242-.21848-1.23078-.49304-.55786-.38453-.97224-.95258-1.18563-1.59564-.64743-1.93939-.51197-5.79778 2.95169-14.53486.36049.78508.69987 1.52355.84916 1.82651 2.00421 4.05575 2.4856 7.77576 2.48778 9.99699-.2163 2.79584-1.5636 4.49125-3.0835 4.77601m14.77008-45.11281c-.1238-.23742-.58262-1.09823-.74138-1.39464-.0299-.0553-.0495-.091-.0539-.099-2.00566-3.68214-2.07339-2.983-3.32675-3.20439-.0444-.008-.0932-.0218-.13983-.0328-1.42595-.32773-3.87804-1.25773-5.07532-1.69615-1.23588-.45371-4.49198.51999-6.59378.72609-.53601.0532-.94894.15075-1.27957.27893-.96642.37578-1.20675 1.01302-1.60584 1.53519-.23305.30515-.39764.3991-.61321.44862-.004.001-.009.001-.0124.004-1.63497.58553-5.49772 5.35134-4.66312 11.92545.0583.64525.19517 1.27448.3685 1.8906 1.59783 6.30975 6.94262 14.77445 8.25497 17.17483-.96715 2.22633-3.03107 6.79551-3.68943 11.09887-.0269.14565-.18644 1.13683-.19663 1.96415v.001c-.0881 2.18772.32116 4.1912 1.59127 5.62808.008.008.24907.26728.26072.27893.64744.63797 1.41285 1.0458 2.18336 1.2905 1.08877.46828 1.91754.20537 2.71791.0684.35904.21849.73337.38453 1.11499.51562 2.29187.79309 4.85684.15585 6.05849-.51562 1.61167-.52289 2.34504-1.46892 2.80676-2.93493.46391-1.3808 1.17398-4.2014-.43259-8.37294-.72318-1.80248-2.17462-4.62307-4.41187-8.72106l-.0146-.024c1.79301-3.39448 6.59596-11.79291 7.45241-14.24792.0459-.1289.0859-.25416.12599-.3787 1.45217-3.71637 2.40038-8.63293-.0852-13.20721" fill="#efece8"/><path d="m-252.79359 348.16574c-.15075.24324-.53528.81858-1.01375 1.52791-1.19291 2.01805-2.32683 3.72949-3.07186 4.93842.24252.39108.7829 1.27156 1.01376 1.69104-.0299-.0532-.0575-.10487-.0859-.15876l-.0153-.024c.11507-.21703.24324-.4559.38161-.71298.005-1.36478 2.32683-6.20124 2.79147-7.2616" fill="#dad7d3"/><path d="m-257.82529 322.78065c-.88048-.47192-2.0042-.43405-3.07549-.24688-.327.0575-1.10843.20755-1.10843.20755s1.57962.38817 2.84099.83387c.81275.31098 2.17607.83752 3.81905-.0291l.0306-.0706c-.7574-.0808-1.66993-.24615-2.50671-.69477" fill="#bbb8b5"/><path d="m-262.96551 323.15397c-.36122.14347-.67729.26946-.9016.39326-2.96407 1.64371-3.80595 3.27067-3.94651 3.40249-.0845.57242-.21411 1.01157-.2782 1.7078.54839.28257 3.20731-.23523 4.97483-1.62696.21921-.18353.45007-.35904.6904-.52581.0932-.0721.17843-.1158.2498-.16969.0116-.004.0218-.0269.0328-.0313 1.01084-.90306 2.20011-3.117 3.31218-2.57007.0888.0437.17697.0838.26291.12017-.13109-.0757-.26291-.15076-.39618-.22286-.79673-.42749-1.64007-.73919-2.55624-.73919-.46099 0-.94165.0794-1.44416.26218" fill="url(#p)"/><path d="m-267.34832 324.99081c-.13182.32845-.24106.64525-.31534 1.05162-.0517.27893-.10123.58335-.1493.90889 1.86875-2.31882 3.75206-3.31073 3.94724-3.40322.21848-.10778.81857-.51925 1.08512-.60738-2.02751.54985-3.15924 1.37644-4.37036 1.74276-.0539.0488-.16604.23013-.19736.30733" fill="#f6f2ee"/><path d="m-257.4195 325.79461c-3.09807-1.73693-4.69517.47192-4.6959.47265-.009.003-.0189.0335-.0277.0371-1.10115.98462-2.20302 2.35669-2.65892 3.75133 1.09168-2.31226 4.38856-5.19695 6.23328-4.31283 4.36235 2.08796 4.58156.78654 5.765-.0124-.86446.52217-1.57962 1.76533-4.61579.0641" fill="#ebe7e3"/><path d="m-253.10857 325.88433c-2.03334.85062-3.40613-.81639-5.45985-2.02969-.0867-.0379-.17406-.0765-.26291-.12163-1.42669-.71079-3.8278 3.05802-3.82197 3.05511.45881-.33792 2.13602-2.7303 5.23409-.99337 3.03544 1.70125 3.48769.73483 4.31282.15367.0415-.0284.30297-.21776.30297-.21776s-.26364.12163-.30297.15221l-.002.001" fill="#fffbf7"/><path d="m-263.11706 327.03048c-1.76897 1.34512-4.42644 1.9088-4.9741 1.62769-.24106 2.65746-.8193 6.09345-.23086 9.97587.25708 1.69541.60082 3.50007.88631 5.2858-.72536-5.70383-.87903-12.55104 4.31865-16.88936" fill="#efece8"/><path d="m-265.68364 322.88501c-.96642.37579-1.20675 1.0123-1.60584 1.53447-.2345.30587-.39764.39982-.6132.44934.14783-.0313.32262-.0728.52144-.12162.53965-.13546.997-.33573 1.53228-.57169.49159-.21703 1.04799-.46318 1.76242-.75449.39691-.16168 1.23588-.46682 1.67794-.58626.44789-.12162 1.61166-.31971 1.67502-.33209 0 0 .44716-.0575.59209-.0794-.0415.003-4.92458.28184-5.54215.46172" fill="#efece8"/><path d="m69.079 789.485c-.142-.01-6.595-.377-7.442-.624-1.326-.516-1.657-1.391-2.205-2.106-.322-.421-.546-.55-.841-.618.202.043.442.099.713.168.742.185 1.371.461 2.106.786.674.297 1.439.633 2.421 1.034.543.222 1.695.643 2.301.807.617.165 2.153.432 2.301.453.204.029.615.081.814.109-.057-.002-.113-.004-.168-.009" fill="url(#r)" mask="url(#U)" transform="matrix(.72827196 0 0 -.72827196 -310.57192 897.39058)"/><path d="m-253.22735 374.99855c-.0481.10123-.0859.18935-.13546.27674-.16969.33282-.35394.64161-.5513.91835 1.62113-.52726 2.34649-1.45435 2.80676-2.93639-1.71727 1.8032-2.12 1.7413-2.12 1.7413" fill="#d2cfcb"/><path d="m-256.99463 375.49298c-1.29123-.56587-2.32901.54402-2.9779 1.21694 2.2926.79163 4.85684.15512 6.05922-.51707.1959-.27602.38088-.58407.55057-.9169-.67802 1.12737-2.3829.76469-3.63189.21703" fill="#dedbd7"/><path d="m-260.96298 373.57041c.65399-1.28758 1.00065-3.62024.80328-4.92676-.21921 2.7871-1.56651 4.49053-3.08277 4.77528-.27456.0437-.53892.0503-.78872.024-.41657-.0554-.83241-.21775-1.23224-.49231-.0663-.0459-.12963-.0954-.19226-.14565-1.15722-.34448-2.08868-1.32473-2.36251-2.52492-.002-.0124-.007-.0226-.009-.0342.0117.19518.0299.38962.0532.58116l.004.0415c.0714.57971.19154 1.13611.37069 1.65973 1.27521 2.30935 4.94497 3.97855 6.43647 1.04216" fill="#ebe7e3"/><path d="m-263.24313 373.41901c-.27456.0437-.53746.0503-.78872.024-.41511-.0553-.83241-.21775-1.23078-.49231-.30514-.2112-.56805-.47629-.77925-.78071-1.04653-1.08367-1.62332-3.0165-1.71581-4.32884l-.004-.0481v.00073-.00073.002c-.0393.34812-.075.75668-.0794 1.13174v.001c-.032.79454.002 1.56432.11871 2.2926.004.0131.007.0269.009.0422 1.15868 2.20303 4.374 4.40022 6.51439.68968-.5564.82076-1.27885 1.32254-2.04426 1.46601" fill="#f2efea"/><path d="m-249.26788 326.81302c-2.00566-3.68287-2.07339-2.98446-3.32675-3.20512-1.69687.091-3.59329 1.2752-5.97401.24688 3.35078 2.00566 6.17283-2.321 9.34664 3.04345.002.004.0393.0743.0422.0786-.0138-.024-.024-.0459-.0357-.0648-.0284-.0553-.0481-.091-.0524-.099" fill="#e7e4e0"/><path d="m79.322 784.955c.026.016.055.033.082.05 1.033.68 3.049 1.039 4.847-1.672-2.641 4.472-5.102 4.061-7.655 3.648-1.667-.27-3.373-.539-5.19.55 2.559-1.649 5.469-4.094 7.916-2.576" fill="url(#t)" mask="url(#M)" transform="matrix(.72827196 0 0 -.72827196 -310.57192 897.39058)"/><path d="m-263.80535 376.12403c.84261-.52654 1.56142-1.26282 2.13311-2.11709-1.59273 1.46383-5.0411.989-6.05413-2.81331.20319 1.2854.66346 2.43971 1.47694 3.36097.008.009.24907.26801.26072.27893.64743.63942 1.41285 1.0458 2.18336 1.2905" fill="#ccc9c6"/><path d="m-257.80956 321.87883c-1.23661-.45371-4.49198.52144-6.5945.72682-.53528.0524-.94967.15148-1.27885.27892 1.24316-.27019 1.3291-.001 4.97119-.40856.0182-.003.47774-.0473.59499-.0539.81858-.0532 1.62551.002 2.29115.35904.83678.44789 1.62623.63724 2.38436.7188.94311.1005 1.83743.0321 2.70553.0757-1.4245-.32845-3.87659-1.25845-5.07387-1.69687" fill="#f2efea"/><path d="m71.136 790.405c-2.105-.032-5.43-.934-7.742-1.161-.736-.071-1.304-.207-1.757-.383 1.726.346 1.9.004 6.828.562.023.004.656.065.814.075 1.126.072 2.232-.004 3.147-.493 1.149-.617 2.234-.875 3.274-.986.781-.085 1.536-.085 2.276-.083.487 0 .966 0 1.441-.022-1.959.45-5.325 1.725-6.967 2.329-.292.106-.661.155-1.092.162z" fill="url(#v)" mask="url(#aa)" transform="matrix(.72827196 0 0 -.72827196 -310.57192 897.39058)"/><path d="m-255.44195 323.49924-.099.0503c-1.3575.73264-2.61159.39254-3.42361.0816.13254.0714.26582.14565.39545.2243 2.38072 1.02832 4.27714-.1573 5.97402-.24834-.0444-.008-.0932-.0204-.13983-.032-.8681-.0437-1.76242.0255-2.70699-.0757" fill="#ebe7e3"/><path d="m-252.79359 365.05735c-1.54175-6.80279-4.89617-11.23214-7.85077-14.86112-2.50817-3.07767-3.87222-6.39714-4.49999-9.40053.0619.68894.1187 1.41139.16531 2.14694.5717 4.17227 2.12729 9.12816 6.70375 14.73586 4.15843 5.09426 5.03891 5.78903 5.4817 7.37885" fill="#fffbf7"/><path d="m-249.13737 327.05576c0 .001.0481.11143.0481.11143.0117.0262.28839.67947.29859.70496.77269 1.8134-.0262 3.30709-.17916 3.56417 1.11499 3.94505-.0539 8.45887-1.86437 12.56196-.78872 1.79737-.75959 3.40831-.98827 4.54442.002-.006.006-.0117.008-.016 1.50388-2.78127 2.87886-5.42635 3.30053-6.63383.0459-.12963.0859-.25489.12599-.38015 1.45145-3.71565 2.40039-8.63148-.0845-13.20576-.10851-.20683-.46828-.88266-.66491-1.25117" fill="#ebe7e3"/><path d="m-252.80364 325.73074c1.09823.8448 1.86073 1.84107 2.51472 2.83079-.22212-1.56942-.6183-3.1272-1.93137-2.99392-.16532.0182-.31899.0481-.47629.11361-.005.001-.0189-.0197-.10706.0495" fill="#dedbd7"/><path d="m-248.75678 327.83879c-.0102-.0255-.78071-1.14339-1.21913-1.58982-.48211-.52217-1.18125-.83314-1.793-.81712-.56369.0146-.78508.16532-.95987.25125-.0277.0124-.0597.0379-.0743.0481 1.87894-.53965 2.23725 1.27739 2.51472 2.82934.60374.91398 1.03706 1.87821 1.3189 2.88031.10706-.201.90597-1.81704.21266-3.60203" fill="#ccc9c6"/><path d="m-259.9726 376.70912c.81639-.6671 1.48859-1.39464 2.34868-1.36624-.61903-.0262-2.92838.46974-3.46366.85062.35976.21703.73409.38453 1.11498.51562" fill="#d2cfcb"/><path d="m-252.08003 369.67263c-.024-.63505-.0954-1.26355-.21266-1.87093-.23377-1.21039-.65835-2.33703-1.31161-3.25902-2.4084-3.39666-8.18068-9.65907-9.67801-14.53776.43478 3.05801-.3066 6.73506.91835 8.54117.41657.53674.81931 1.06619 1.20384 1.58472 2.93784 3.5059 6.35708 5.53924 6.2493 10.51261-.0575 2.63488-.94384 3.57508-2.23944 4.78984.0503.0168.10196.0364.15585.0597 1.25044.54475 2.95387.90961 3.63116-.21703.87466-1.71071 1.3728-3.2947 1.28322-5.60332" fill="#efece8"/><path d="m-254.68593 371.06494c.77707-6.39641-2.916-9.82293-6.43428-13.85465-.40711-.45298-1.58254-.9686-1.12154.0932 1.986 3.1221 3.31072 6.15099 3.62534 7.4109 1.8549 7.43638-.1828 9.7887-2.4703 11.47975.53455-.38162 2.84463-.87757 3.4622-.85062.15148.004.30879.0328.47411.0896 1.05381-.989 1.78863-1.50898 2.20375-3.08351.059-.21848.11142-.46172.16459-.73046.0342-.17332.0721-.35685.0961-.55421" fill="#e7e4e0"/><path d="m-257.39925 366.39023c-.85863-3.4389-2.89415-8.80699-6.50638-13.49415-.0554.1675-.37433 1.17907-.6387 1.93138.24033.41438.44134.76395.58918 1.03487.18571.35977.30514.60956.45808.95768.36049.78508.7006 1.52354.84916 1.8265 2.00494 4.05575 2.4856 7.77504 2.48778 9.99699.1493 2.78492-1.24462 5.98057-3.64573 7.48008 1.0895.46974 1.91827.20683 2.71937.0699 1.95468-.71152 5.54215-2.36616 3.68724-9.80327" fill="#f2efea"/><path d="m56.257 783.302c-3.328-4.549-4.151-11.925-2.821-15.84 1.699-5.005 2.459-7.48 6.656-14.176.386-.615-2.175 9.621-2.735 12.111-.512 2.278-2.066 11.586 1.22 18.923.305.681.653 1.431 1.045 2.071-1.319-.692-2.439-1.825-3.365-3.089" fill="url(#x)" mask="url(#R)" transform="matrix(.72827196 0 0 -.72827196 -310.57192 897.39058)"/><path d="m63.069 758.457c-.061.293-.099.457-.099.457s.033-.162.099-.457m-.224-12.842c.165-.284.3-.507.442-.761.066-.118.139-.241.206-.358 5.634-9.849 14.466-17.034 9.503-24.81-.443-.695-.896-1.408-1.672-2.101.897.739 1.599.651 2.226.561.66-.094 1.24-.189 1.884.686.182.247.425.646.633 1.162.112.271.212.57.313.947s2.708-3.655 5.354-1c.891 2.966 1.246 7.434-2.709 12.289-4.5 5.524-7.305 6.082-10.94 12.308-2.875 4.922-4.598 12.058-5.016 13.919.422-2.013 1.944-10.105-.224-12.842" fill="url(#z)" mask="url(#O)" transform="matrix(.72827196 0 0 -.72827196 -310.57192 897.39058)"/><path d="m57.581 781.04c-.809-3.564-1.317-8.785-.506-14.116.353-2.331 2.079-7.42 2.47-9.873-.993 7.831-4.718 22.816 7.216 28.499-2.842-.705-8.428-4.894-9.18-4.51" fill="url(#B)" mask="url(#W)" transform="matrix(.72827196 0 0 -.72827196 -310.57192 897.39058)"/><path d="m-259.15148 369.44614c.0517-2.55623-.43187-5.07751-1.23296-7.47498-.80547-2.40184-1.93284-4.68352-3.23717-6.8545-.64817-1.09095-1.32473-2.18263-1.95905-3.28888-.63433-1.10915-1.257-2.22341-1.84836-3.3566-1.18271-2.26274-2.29478-4.57136-3.12938-6.98777.51634 1.16815 1.06764 2.31226 1.66701 3.43744.58626 1.12955 1.19801 2.24527 1.82287 3.35515 1.2468 2.22123 2.55987 4.39512 3.88678 6.57775 1.30944 2.20303 2.43243 4.53423 3.17163 6.9987.37214 1.22932.64889 2.4885.80328 3.76225.1493 1.27302.17697 2.56206.0554 3.83144" fill="#e1deda"/><path d="m-268.89219 344.92056c.58626 1.12882 1.19947 2.24599 1.82287 3.35515.25708.45735.51634.91325.77925 1.36769.75303 1.19947 1.59564 2.43461 2.51982 3.63262 4.23927 5.50137 6.90329 11.10542 4.98284 16.51357-.34885.98462-.17333 1.44635.26873 1.46528h.0583c1.21913-.0495 4.19412-3.11991 4.24218-7.74226v-.22576c-.0328-3.17527-1.45217-7.05696-5.72858-11.18407-6.64767-5.04911-10.61093-10.61821-10.61093-10.61821.51562 1.16742 1.06619 2.31154 1.66556 3.43599" fill="url(#C)" opacity=".429993"/><path d="m-263.49708 356.82008c-.15294-.34811-.27237-.59791-.45808-.95768-.96642 2.22633-3.03034 6.79624-3.68943 11.0996-.0262.14565-.18571 1.13683-.1959 1.9656.0146.14784.0364.28694.0648.41439.58116 2.50817 1.48568 2.93493 1.86219 2.99902-.23523-.29131-.41584-.62558-.53528-.98608-.6467-1.94011-.51197-5.79923 2.95169-14.53485" fill="#f2efea"/><path d="m-251.53965 364.88468c-.72317-1.80102-2.17389-4.62161-4.4126-8.72106l-.0138-.0226s-1.45071-2.39383-1.45217-2.39456c-2.76088-4.9639-5.73369-9.28765-7.35118-13.35869-.35612-1.09824-.63724-2.18118-.81057-3.21751-.001-.004-.001-.008-.002-.0124-.001-.007-.002-.0131-.004-.0189.15731 1.00793.11652 2.05155.44133 3.65739.62923 3.00339 1.99328 6.32213 4.5 9.40053 2.95605 3.62752 6.31047 8.05833 7.85222 14.86039.19809.87466.4945 2.82497.61175 4.63399.14129 2.18118-.26655 3.704-1.04507 5.30984.0189.0269.48722.65034 1.84399-1.24389.10924-.16532.1959-.33282.27528-.4996.46391-1.3808 1.17471-4.19994-.43259-8.37294" fill="#fffbf7"/><path d="m-270.68519 331.95877c0 1.12591.91252 2.03698 2.03843 2.03698 1.12664 0 2.03916-.91107 2.03916-2.03698 0-1.1259-.91252-2.03916-2.03916-2.03916-1.12591 0-2.03843.91326-2.03843 2.03916m2.3108-.96423c-.2061-.0794-.33573-.27601-.33719-.48576.0211-.001.0422-.006.0648-.006.33428 0 .63869.11579.88412.3066-.0983.13764-.25853.21921-.42531.21921-.0626 0-.12526-.0109-.18644-.0342m-1.62841.44061c.12453-.32117.36049-.58335.65836-.74721.0459.0765.0736.1675.0736.26145 0 .29131-.23523.52654-.52581.52654-.0736 0-.14129-.0131-.2061-.0408m1.04288 1.03997-.26217-.49377c-.0291-.0561-.0189-.12453.0233-.17042l.39035-.402c.0437-.0459.11216-.059.16823-.0306l.50324.24616c.0575.0277.0896.0881.0801.15148l-.0779.55421c-.009.0634-.0575.11288-.11871.12381l-.5513.0961c-.008.001-.0175.001-.0255.001-.0539 0-.10342-.0284-.12964-.0765m1.29924-.41366c0-.24907.17406-.45517.40419-.51198.0393.13109.0655.26582.0655.40929 0 .2112-.0466.41148-.12964.59282-.19809-.0743-.3401-.26582-.3401-.49013m-2.39674.24106c.0422-.0109.0867-.0182.13327-.0182.28913 0 .52581.2345.52581.52581 0 .1209-.0408.22868-.10924.31753-.27091-.20027-.46828-.48867-.54984-.82513m1.2803 1.09896c.0328-.25854.25125-.45808.51853-.45808.17551 0 .33063.0881.42677.22139-.23159.15731-.51198.24907-.81494.24907-.0452 0-.0881-.008-.13036-.0124" fill="url(#E)"/><path d="m-268.40497 328.26207.47046.81566.81566-.47046-.47046-.81567z" fill="url(#F)"/><path d="m-269.56293 335.57392.67875.65471.65472-.67583-.67802-.65691z" fill="url(#G)"/><path d="m-255.88379 369.81945c-.0728.0954-.11216.25489-.12964.45954-.0175.20756-.0102.39326.005.57023-.0765-.0838-.22795-.11142-.30879-.0495.0211.0823.0488.15731.0597.24543.009.0612.009.1289.009.19445-.14201.10414-.30587.24543-.32845.50906-.004.0422-.002.0808-.002.12089-.0532-.1675-.14565-.33864-.19153-.4843-.0415-.12963-.1158-.25416-.18862-.31971-.0211-.0211-.0488-.0277-.0743-.043-.016.043-.0284.0888-.0444.12818-.007.0197-.009.0401-.0175.0794-.0488-.0503-.0881-.0961-.13692-.13182-.0364-.0262-.0801-.0379-.12453-.0466-.0932-.0211-.10924.001-.10924.13765 0 .0444-.002.0918-.004.15002-.20319-.0779-.31607.0867-.3117.091.043.0401.0808.0648.0903.12671.009.0583-.0138.15003-.043.22941-.0583.15731-.0197.42458.0932.52873.0808.075.23087.0612.33647-.0415.12235-.11361.16022-.46463.0918-.57387-.0415-.0656-.0706-.0663-.15148-.0109.0211.0459.0634.0903.0575.14202-.006.0583-.0466.1391-.0881.18498-.0568.0612-.12089.067-.16677.0168-.0801-.0896-.0816-.2447-.007-.39036.0211-.0401.0736-.11506.1005-.13546.11507-.0838.25126-.10778.33501-.0481.0932.0663.15002.17333.16168.33209.0218.27674-.12163.70788-.10852.98317.009.25489.19154.35539.40347.39691.0932.0182.33427.0459.3838.0641.25198.0903.47046.0765.60446-.15585.13764-.23814.21266-.68749.35977-.92417.0852-.13473.18352-.20319.29713-.22213.10342-.0138.21266.0663.27675.19445.016.0306.0262.12017.0277.16678-.003.16313-.0765.30077-.18789.34228-.0663.024-.1209-.008-.14202-.0896-.0153-.059-.0138-.1493.009-.20538.0182-.0473.075-.0663.11507-.0983-.0459-.0867-.0721-.1005-.1391-.0605-.11143.067-.22795.38963-.17114.54548.0444.1391.1726.21921.2782.18935.15075-.0422.29422-.25344.31752-.42313.0102-.0816.0335-.17333.067-.22212.0371-.0517.0816-.0561.14056-.0706.004-.001.008-.0117.016-.024-.0328-.17842-.15512-.14929-.25125-.19736.0248-.0546.0444-.0954.0663-.13691.0634-.1209.059-.14857-.0342-.16969-.043-.0116-.0867-.0233-.13254-.0153-.0583.008-.1158.0335-.18207.0554.0102-.0386.0168-.0583.0204-.0772.006-.0437.0153-.091.0211-.13546-.0117.001-.0219.001-.032 0-.0189 0-.0371-.001-.0568.004-.0932.0262-.15585.0845-.27456.15439-.1107.0656-.25344.23086-.36923.39691.0138-.0575.0299-.11361.051-.16532.075-.19153.0612-.30951-.0131-.40128l-.0845-.13691c.009-.0204.0182-.0437.0269-.0706.0393-.12818.0998-.22795.14712-.35467-.0211-.0808-.16532-.15585-.26073-.12235.0539-.17333.091-.36195.0925-.58189-.001-.201-.0488-.32481-.10268-.42021-.008-.0138-.0197-.0197-.0313-.0197-.0204 0-.043.0153-.0604.0357m-3.70254 2.38072c-.0328-.11434-.0663-.23013-.10196-.35467-.15148.0299-.24178.14566-.30733.26946-.0641.12308-.0976.25999-.14711.38599-.0612-.0524-.12235-.10779-.18498-.16314-.19518.23086-.22722.47265-.0502.75522.14493.23013.31607.44133.47993.65035.18644.2396.37579.46828.3889.78143.0138.29277-.14347.54839-.39254.75741-.19736.16677-.41657.22867-.69186.23013-.009 0-.032.0816-.0364.0969.0248.11434.23013.0626.33355.0364.77706-.19663 1.27884-.78653 1.0458-1.38371-.0896-.23742-.39254-.61466-.50834-.8448-.0969-.18862-.18352-.37943-.14201-.60228.0517-.26291.30806-.51926.63359-.46537.18499.0299.33137.1828.32991.36851-.001.11944-.10341.27747-.22139.32918-.0765.032-.15585.043-.21484-.0124-.0539-.0539-.0539-.12089-.0182-.19372.006-.0116.007-.0248.0102-.0386-.11944.009-.26946.1726-.25271.30005.0313.22285.53236.40055.7625.24907.2112-.13692.32481-.45736.24907-.71517-.0736-.24906-.18571-.37943-.4224-.45589-.0255-.0102-.0473-.0204-.0663-.0306.0473-.11944.0859-.22285.126-.33646-.0146-.00073-.0299-.00073-.0452-.00073-.26072 0-.4071.16386-.55567.38744m1.78135.91689c-.15148.0648-.33354.24616-.36777.37142.0743-.0197.14347-.0444.20756-.0553.13909-.0175.23304.051.2578.18062.0204.10996-.0597.30296-.17114.3969-.18061.15367-.37142.28913-.55859.43114-.21775.16095-.31534.35176-.29931.56878.0197.28985.26363.49668.3066.53819-.37798.47993-.82659.88048-1.28249 1.24462.12526.0364.25125.0714.37652.099.41074-.34958.81129-.72099 1.19873-1.14558.32918.14493.73192.17697 1.04799-.0663.20318-.15731.29713-.34811.3787-.54839.0619-.15148.10924-.30514.16167-.45954.0728-.20974.22504-.3787.38453-.44133.14638-.0568.23378.0153.24689.2061.00072.0255.002.0488.005.091.10051-.12744.13765-.25635.16532-.37651.0488-.22941-.005-.36996-.10123-.46173-.11434-.10705-.3066-.11506-.50251.0335-.0765.0546-.17405.16532-.2447.27311-.0932.14274-.16895.28694-.24033.43259-.23159.3066-.41948.50615-.54766.62559.14202-.21266.25053-.43842.34521-.66637.0823-.19664.15002-.39618.21556-.59719.009-.0248.0124-.051.0226-.0969-.035.0335-.0546.0459-.0699.0656-.27238.3299-.57971.62922-.88485.92199-.0306.0284-.0539.0605-.0823.0918.0131-.1573.12818-.36122.24834-.53819.0452-.0459.0874-.0918.12745-.14129.12526-.14783.23377-.32626.30223-.49886.0874-.22649.0124-.37142-.11871-.45954-.0765-.0524-.16167-.0816-.25853-.0816-.0794 0-.16969.0204-.26874.0626m-3.11117.55932c-.13255-.008-.39837-.0182-.40128-.008.74429.37651.9635.89431 1.0844 1.52791.16022-.0779.31825-.55567.29058-.80693-.0371-.34884-.23087-.603-.54912-.84479-.009.0481-.0146.0757-.0233.11215-.17332-.0794-.28184-.24761-.5025-.28329.0357.10924.0677.20391.10123.30296m6.70738.91252c-.0124-.007-.0313-.0138-.0517-.0248-.14347-.0808-.68166-.20173-.95767.0947-.19008.21047-.4173.73919-.0692.96714.0852.0539.14711.10633.28257.0401.11288-.0575.18789-.16241.24033-.28257.0102-.0218.0117-.0459.0197-.0801-.0218.0168-.0335.0233-.0444.0357-.11215.12235-.1777.15439-.23232.11725-.0546-.0335-.0976-.23523-.0357-.34665.16532-.29641.47702-.39618.63142-.30151.12235.0757.15002.23887.0517.48139-.11506.2833-.30805.51052-.54037.60665-.21193.0874-.42022.12089-.6285.14857-.12963.0153-.25781-.0153-.39254-.0444-.16969-.0386-.34666-.0765-.53747-.0233-.51488.14711-1.11571.62049-1.45727 1.09532.0685.004.13619.005.20465.005.099-.11653.21702-.23087.35539-.33574.39618-.30587.78872-.46318 1.15868-.44643.29204.0153.55131.0706.82222.0823.16605.008.32845.0182.50105-.0124.24252-.0437.47775-.22868.68239-.56514-.0655-.0138-.12599-.0262-.19372-.043.28403-.2549.51052-.55276.58481-.94748-.11725.0816-.22577.14929-.33938.21557.075-.15804.14857-.30806.19445-.45445.0488-.15512.043-.28038-.0124-.36559-.0779.12963-.15002.24907-.23669.3838m-5.6492 1.1026c-.16241.13255-.15804.35322-.024.52727.0452.059.0969.10997.13182.15076.14056-.1158.26145-.23451.39764-.33865.3015-.23232.38889-.50178.3452-.78071-.0102-.0685-.0299-.13473-.0481-.22139-.27237.24324-.54766.45225-.80255.66272m-1.3342.0867c-.14492-.006-.28257-.0131-.42167-.0299-.001.0116.1544.16168.24616.23086-.0663.0561-.12818.10706-.19081.15731.66419-.0262 1.15795.28111 1.65245.58917-.0634-.39836-.62777-.9351-1.31235-1.03269.008.0277.016.0539.0262.0852m2.65091.85208c-.1056.12162-.25271.23523-.37797.3452.23596.0408.46828.067.7006.0816.0269-.0124.0539-.0269.0787-.0459.1289-.0925.2345-.21702.34156-.33427.0779-.0867.13691-.18571.21193-.2782.0699-.0881.14929-.1726.22649-.26437-.47848.0138-.87903.14712-1.18126.49596m2.48268-.0175c-.41074.035-.863.22285-1.29778.45808.68603-.0255 1.34148-.13546 1.92045-.28839-.13109-.11434-.2964-.17406-.5127-.17406-.035 0-.0721.002-.10997.004" fill="url(#H)"/><path d="m-260.10413 355.50818c-.0219.003-.0401.0146-.0415.0364v.007c.007.12017.0401.25927.15803.43915.13036.19882.27311.34666.42459.47119-.10415.0277-.18935.17916-.15804.26509.1158.0852.22941.14056.33938.23232.23086.18935.34957.0881.36777.003.005-.0306-.0306-.0859-.0838-.15002.0488.0444.10415.0743.16168.0736.10123-.0226.16969-.0692.0932-.22795-.0408-.0808-.11434-.17333-.1544-.25781-.0422-.0888-.0619-.17114-.0925-.25708-.10851-.009-.22795.10414-.2447.22503-.0918-.16895-.19517-.34083-.33427-.51634-.13546-.17406-.26655-.29495-.38672-.33792-.009-.003-.0182-.005-.0269-.006zm1.94303.75084c.0277.19518.23159.51999.43551.77124-.0881-.20755-.0524-.32553.0277-.42822.0306-.0379.0226-.18134-.0888-.31753-.043-.0532-.14201-.15293-.20683-.17114-.0211-.007-.0415-.009-.0583-.009-.0881 0-.12016.0772-.10924.15512m1.37498.18353c-.0473.0379-.13182.10705-.17916.3685-.0393-.0517-.14929-.14929-.20173-.19517-.0197.0335-.0466.0583-.0575.0976-.0364.11943-.0168.2629.067.41875.14274.27019.29932.53601.45735.80037.29131.48795.57097.95622.41221 1.38445.0335-.002.0444-.001.0503-.002.0109-.004.0168-.0175.0255-.0226.21775-.15221.37943-.40929.22066-.71808-.16313-.31898-.60082-.71953-.75303-1.04653-.0888-.18716-.0932-.34447-.0313-.4792.0568-.12089.22285-.18207.40638-.16168.0437.006.15075.059.19955.0896.17842.1209.27747.29787.24251.44789-.0197.0867-.0947.12381-.19736.0881-.0757-.0262-.17406-.0918-.21848-.15367-.0393-.0539-.0197-.12963-.0255-.1959-.12672-.0124-.16022.007-.16386.10706-.008.16823.1959.41074.40637.46099.18353.0503.36414-.0313.40638-.16677.0612-.19154-.004-.38599-.17187-.53018-.083-.0685-.16751-.15877-.19518-.23159-.0284-.0736-.002-.12672.0204-.20174.003-.007-.006-.0168-.0124-.0335-.21848-.0918-.27456.0605-.39545.13036-.0393-.0663-.0706-.11725-.10196-.17041-.0517-.0918-.0823-.13182-.12089-.13182-.024 0-.0517.0168-.0888.0473m-1.70707.27456c-.0364.0342-.0597.1056-.0218.17405.0736.1391.22285.27748.38744.35686.31389.15148.59864.37943.80984.67074.0364.0517.0714.10414.1056.1573-.18134-.17988-.39254-.34447-.58408-.51197-.2061-.17697-.40492-.25927-.57315-.25126-.0495.003-.0845.0481-.0823.0976.008.17333.12526.35103.30078.56368.14856.17989.29713.38672.45881.58189-.0342-.0291-.0699-.0561-.10415-.0852-.24834-.20028-.46391-.44206-.63723-.72099-.0867-.13983-.46828-.60811-.6336-.37361-.0597.0845.032.25344.20901.38963.15731.11944.31826.21994.47702.335.003.19227.0765.31607.30588.48285.13254.094.26509.16604.3969.25781.0393.0277.0961.0794.10997.11652.067.18789.19081.28694.32554.34666.15367.0677.29204.0706.39108.0677.0903-.004.18353-.0524.24616-.13692.0925-.12308.14929-.44643.0109-.70351-.0459-.0845-.13181-.18207-.2112-.24907-.0641-.0568-.10268-.0932-.13982-.1726-.0743-.1624-.16896-.32408-.27893-.47993-.15731-.21848-.29495-.28912-.44643-.27237-.13255-.16459-.25271-.31753-.39254-.45809-.12672-.12599-.27602-.20318-.36705-.20318-.0262 0-.0481.007-.0626.0204m-1.07056 1.38881c.00073.2214.33136.25271.41293.2214.1005-.0386.16459-.1158.26363-.15148.0677-.0218.17115.004.29422.0117-.21556-.13546-.54183-.29568-.75521-.29568-.12818 0-.2163.0575-.21557.21411m.47265.40128c-.0386.009-.0656.0335-.0998.0503.0473.0561.11944.16677.18134.21411-.0896.0197-.16896.0269-.2396.0546-.0568.0204-.0976.0605-.14055.1005-.0896.0852-.0758.11944.0706.21557.0517.0335.099.0677.16459.11216-.22941.16313-.12964.40273-.12235.40127.0743-.0197.12817-.0422.20173-.009.0699.0335.15512.1238.21848.20974.134.1777.32335.25489.51853.20683.1391-.0335.22941-.20756.19154-.39545-.0379-.21193-.2651-.4326-.4326-.43478-.10123-.002-.12308.0299-.11943.15585.067.0116.14201-.004.19372.0379.0597.0488.11943.15075.14055.22867.0284.1056-.0124.17625-.1005.19008-.15221.0255-.32335-.0845-.43114-.26946-.0291-.0517-.0735-.16022-.0765-.20537-.009-.18498.0612-.34666.18644-.39472.1391-.0532.29495-.0379.47556.0612.3168.17552.68822.63651.99701.81931.29786.1777.56514.0342.73046-.17333.006-.008.0197-.0138.024-.024.00073-.005 0-.0175.005-.051-.43697.13181-.88631-.1777-1.35532-.49887-.25198-.17478-.50833-.34884-.7676-.50906-.11288-.0692-.22066-.10487-.31898-.10487-.0328 0-.0648.004-.0954.0117m3.66757.22649c-.23377.1209-.33719.44862-.12162.86883.0532.1005.11725.20683.19081.29932.28548.36122.60592.65399.92272.95331.19226.18498.37288.38525.55567.58771.47047.52363.3838 1.14485.39691 1.17398.20974-.34156.39327-.69332.22067-1.23806-.10997-.34011-.34083-.5717-.57898-.77853-.18061-.15876-.36996-.29349-.55786-.43987-.25562-.19882-.41875-.4894-.42895-.73774-.009-.22649.13109-.31243.40128-.23742.035.009.0554.0146.11652.032-.099-.18352-.27674-.30805-.43186-.40273-.16678-.10123-.30952-.14128-.43405-.14128-.094 0-.17697.0233-.25126.0604m-.38816 1.43106c.32699.53018.59572 1.09386.85644 1.65245.13182.27674.32044.53163.49304.77488.0641.0888.19809.11361.29932.13327.0707.0138.12017.0342.16532.11944.58335 1.0691 1.04143 2.18627 1.40848 3.26338.0109.0364.0197.0918.006.12308-.16094.32263-.0634.55349.10415.76323.13254.1675.37651.50688.47192.49887.0197-.20173.0422-.40055.0386-.59864-.00073-.17843-.008-.36632-.0597-.5331-.0306-.10123-.14201-.16022-.21703-.24033-.0539-.0568-.13254-.1005-.1573-.17114-.38817-1.05235-.85281-2.14913-1.43907-3.19056-.0583-.10778-.0721-.18207-.0357-.28694.0612-.1828.004-.38598-.10415-.57679-.27747-.4843-.65107-.85863-1.03997-1.20238-.23378-.2061-.47702-.39254-.7239-.57897-.0306-.024-.0641-.0401-.12235-.0765.0284.0626.0379.0976.0561.12672m-1.05673.25999c-.20173.1493-.30005.37215-.27528.71298.0189.23741.18206.57388.33937.6802.009-.10996.007-.21702.0226-.30878.0415-.19809.18061-.29641.36996-.26874.16313.0262.39108.22795.46755.42532.12818.31898.22795.64524.33282.96933.12089.37433.33719.60519.64598.68166.25125.0626.49449.0146.73992-.0954-.10414-.0634-.18498-.11506-.26946-.16313-.26655-.15512-.44279-.42604-.57825-.74648-.16896-.39909-.32699-.80765-.55494-1.17761-.14638-.24325-.34083-.47629-.54839-.65181-.13983-.11725-.27019-.16531-.38962-.16531-.11143 0-.21339.0422-.30224.10778m-2.05154 2.5657c-.16532-.0277-.33355-.0539-.51562-.083-.0503.20756.043.39254.16241.5513.11871.15439.27383.27674.40637.41439-.10487.0473-.21265.0918-.31825.13691.1777.3838.46901.5717.9351.5178.38016-.0452.75085-.13691 1.11863-.21993.41875-.0925.82294-.19518 1.2315-.024.38453.15877.61612.50979.73556.94967.094.3503.0422.66564-.11944 1.01375-.005.0102.0728.0852.10342.10415.0473-.14129.19299-.35977.22285-.50615.21411-1.09969-.52363-1.86875-1.42814-1.93138-.35613-.0291-.71735.0138-1.08149.0233-.29859.009-.59572.004-.8528-.18062-.30588-.2243-.48139-.70132-.21849-1.08075.15076-.2163.43333-.30806.66783-.19736.15439.0736.29568.29713.28985.47774-.003.11798-.0364.22431-.14347.26509-.10196.0371-.18643-.002-.25926-.0932-.0116-.0131-.0277-.0226-.0415-.0342-.0612.15585.059.44133.23304.49668.30151.0954.6052-.29277.54912-.67365-.0488-.34885-.2112-.64161-.5178-.77853-.33646-.14929-.62194-.0961-.86082.1544-.0284.0277-.0546.0481-.0786.0685-.12599-.13181-.23523-.24324-.3554-.36267-.19809.35394-.0735.65326.13546.9919m1.70925.57388c.34302-.0109.69987-.4508.5382-.84188-.11653-.29204-.46828-.53237-.74138-.69987.42312.4843.59427 1.01011.20318 1.54175m4.38129.60956c.12089.20319.201.43842.29204.65982.32917-.20028.56222-.59791.42676-1.02832-.0692-.21994-.18862-.42313-.30004-.6234-.0852-.15003-.19227-.27966-.28403-.42459-.0903-.1391-.16896-.28693-.25999-.43623-.20902.662-.21412 1.27229.12526 1.85272m-1.26792.82878c.10705.28621.41438.38671.71953.28621.10196-.035.19882-.0808.27092-.10924-.094-.24834-.20101-.46828-.28039-.70497-.17697-.52436-.50833-.7727-.91616-.84625-.0998-.0168-.20319-.0226-.32991-.0386.20901.48867.36559.96278.53601 1.41285m-3.62243-.0452c.0626.0364.0976.0554.1442.0845-.19008.20101-.47556.26801-.63141.55276.16969.003.3168.004.46755.006-.0721.17697-.21193.53746-.20028.54693.87393-.84188 1.69397-.89577 2.62761-.75667-.0313-.25708-.6183-.70279-.9788-.78435-.11506-.0262-.22722-.0393-.33719-.0393-.36996 0-.71807.14347-1.09168.39035m5.52904.27019c.23378-.0918.4661-.17697.6955-.22503-.0153-.0393-.0291-.0794-.0444-.11798-.0393-.0983-.0823-.20101-.12526-.30588-.22868.18498-.42167.42167-.52582.64889m.0459.57898c-.0131.004-.0226.0233-.0459.0583.35103.0626.48139.37142.54694.729.20318-.0495.29495-.22431.38379-.38234.0765.0699.14784.15294.22941.21265-.0706-.25708-.15002-.52071-.2396-.79017-.0466-.005-.0939-.009-.13983-.009-.24761 0-.49158.0757-.73483.18134m-3.05218 1.23151c.0422.001.0845.002.13181.003-.0772.19445-.15366.38162-.24178.56295.0138.009.29786-.13327.43696-.22649.0459.11944.0859.22722.12599.33646.28039-.92272.93802-1.44999 1.59856-1.9809-.0488-.009-.1005-.0124-.15439-.0124-.59282 0-1.47476.50251-1.89715 1.31745m2.14621-.62486c-.22867.19663-.44133.41366-.5564.71079-.11288.28549-.0772.51416.1056.70861.22941-.20901.40055-.41948.33355-.68457.16022-.009.31316-.0197.50688-.0335-.14347-.31535-.23232-.59427-.0364-.93074-.0109-.009-.0204-.0182-.032-.0255-.10268.0867-.21557.16605-.32117.2549m1.35241.40638c.11798.201.20173.37797.32043.52435.0823.10851.21776.17988.38526.10851.0583-.0233.13692-.0845.17697-.14492-.016-.0779-.0335-.15585-.0517-.23596-.11798.0138-.20901-.0554-.28402-.10997-.12527-.0896-.25927-.14711-.44498-.14711-.032 0-.0663.001-.10195.005m-1.21039.95185c-.0473.15585-.11288.28402-.32117.32845.083.12089.20974.14347.35612.12672.13765-.0168.23378-.11434.2935-.2214.091-.1624.10123-.35758.0794-.52581-.0117-.0925-.0299-.20173-.0597-.26218-.18935.17333-.28548.35904-.34811.55422m1.43469.26509c.16241.0925.39982-.0146.53018-.28184-.21629.0597-.29422-.0765-.40491-.18863-.0976-.0976-.22286-.16167-.34812-.24979-.0648.27164.0466.62267.22285.72026m-.90888-.0437c.005.14711.007.27966-.14347.41585.14347.0422.26873.007.39254-.0918.11142-.0859.14492-.19226.1391-.31243-.0109-.20901-.16386-.45881-.3605-.5513-.004.19736-.0357.37652-.0277.53965m.6671.61539c.0189.0291.043.0451.0728.0481h.0219c.0255-.002.0554-.0117.0903-.0291.0998-.0503.13327-.10706.11798-.18426-.0408-.21775-.20028-.35321-.37579-.48357-.0335.24761-.043.47047.0728.64889" fill="url(#I)"/><path d="m-266.424 353.73949.29713-.16969-.80911-1.41066-.29713.16969.31097.54402-1.46965.84406.18498.32336 1.47038-.8448zm1.32618 1.62186-1.45508.23086.92781-1.14921-.28839-.50032-1.76606 1.01448.18425.32263 1.35167-.77561.005.009-1.06619 1.2723.15148.26363 1.6357-.27747.005.007-1.35022.77634.18498.32263 1.76679-1.01376z" fill="#bcbab7"/><g fill="#9a1032"><path d="m-263.90889 397.0391c-.40475 0-.57776-.53966-.57776-2.0248 0-.77088.37512-.96346 1.44493-.96346.28094 0 .50527.002.72061.006-.34126 1.05023-.79892 2.98244-1.58778 2.98244m-2.16924-1.01267c0 .39311.0376.72855.10582 1.01267h-5.65749c-.75236 0-1.23329-.17407-1.23329-.86823v-1.92745h1.78195c.1455-.43331.24126-.8296.28941-1.25234h-2.07083c.008-.59468.0519-1.12588.0952-1.73539-.67458.24073-1.20419.52009-1.63857 1.00261v.73278h-.91584c-.0767.52062-.0767.91479-.0958 1.25234h1.01161v2.02428c0 1.41688.85817 2.02427 2.0338 2.02427h7.69181c.94229 0 1.66608-.77246 2.36182-2.52055v2.52055h1.54175v-5.30089c-.69363-.0582-1.33011-.0974-2.02374-.0974-1.9084 0-3.27767.79098-3.27767 3.1327m8.09709-.58781v-.52009c0-.67511-.0487-1.25339-.14444-1.92745h-1.49413c.0481.67406.0963 1.25234.0963 1.92745v3.37344h1.54228c0-1.88989.60686-4.03902 2.21633-3.80728 0-.33756-.0481-1.10896-.14391-1.59096-1.1751.10212-1.75074 1.13753-2.07242 2.54489m-21.24428 1.60048c-.40475 0-.57829-.53966-.57829-2.0248 0-.77088.37618-.96346 1.44546-.96346.28094 0 .50527.002.72167.006-.34232 1.05023-.79892 2.98244-1.58884 2.98244m-2.16818-1.01267c0 1.60048.57776 2.36183 1.34916 2.36183.94494 0 1.69942-.83648 2.40997-2.61949v2.5232h1.54228v-5.30089c-.69416-.0582-1.33011-.0974-2.0248-.0974-1.9084 0-3.27661.79098-3.27661 3.1327m50.25602-2.45759c0-1.32006-.91584-2.12056-2.55441-2.12056-.90579 0-1.57032.19258-1.9756.38623-.23121.32697-.33703.70368-.48199 1.29996.61691-.24074 1.21424-.43279 2.12056-.43279.72273 0 1.30155.30845 1.30155 1.15657 0 .91479-.56877 1.58037-3.66338 3.37291 0 .19311.0101.57829.0968 1.06081h5.10777c.14549-.43385.24126-.81902.2894-1.25287h-4.34747c2.17188-.74283 4.10674-1.51847 4.10674-3.47026m-53.88818 3.24275-.0794-.0429c-.92484-.49099-2.16871-1.24229-2.16871-2.61156 0-1.25392.81055-1.84173 1.78354-1.84173 1.07986 0 1.73486.76135 1.73486 2.09252 0 .91637-.50474 1.72481-1.27033 2.40362m2.95705 1.57667-2.53907-1.35392c1.43699-.52221 2.49092-1.55233 2.49092-3.0126 0-1.9666-1.47508-2.95863-3.37343-2.95863-1.74439 0-3.42158 1.11795-3.42158 3.27714 0 1.82163 1.38778 2.91048 2.91048 3.71046l4.89614 2.55441c0-1.12748-.13439-1.77402-.96346-2.21686m36.08717-.57881c-.43279 0-1.78301-.87722-1.78301-3.22794 0-1.15764.67511-1.87983 1.78301-1.87983 1.10843 0 1.78407.72219 1.78407 1.87983 0 2.35072-1.34969 3.22794-1.78407 3.22794m0-6.36117c-1.92692 0-3.37343 1.15657-3.37343 3.03641 0 2.45759 2.36183 3.90357 3.37343 3.90357 1.01267 0 3.37344-1.44598 3.37344-3.90357 0-1.87984-1.44493-3.03641-3.37344-3.03641m.0217 2.62795c-.33703.24021-.62644.52115-.88146.8423.25502.32116.54443.60104.88146.84231.33702-.24127.62537-.52115.88251-.84231-.25714-.32115-.54549-.60209-.88251-.8423m8.8468-.50739c0-1.32006-.91638-2.12056-2.55548-2.12056-.90526 0-1.57031.19258-1.97559.38623-.23068.32697-.33703.70368-.482 1.29996.61744-.24074 1.21531-.43279 2.1211-.43279.72272 0 1.30154.30845 1.30154 1.15657 0 .91479-.56876 1.58037-3.66284 3.37291 0 .19311.01.57829.0963 1.06081h5.10883c.14391-.43385.24073-.81902.28888-1.25287h-4.34801c2.17242-.74283 4.10728-1.51847 4.10728-3.47026m-13.01333 0c0-1.32006-.91479-2.12056-2.55336-2.12056-.90632 0-1.57138.19258-1.9756.38623-.23173.32697-.33808.70368-.48199 1.29996.61638-.24074 1.21425-.43279 2.12057-.43279.72219 0 1.30048.30845 1.30048 1.15657 0 .91479-.56876 1.58037-3.66231 3.37291 0 .19311.01.57829.0968 1.06081h5.1083c.14497-.43385.24073-.81902.28835-1.25287h-4.34748c2.17136-.74283 4.10622-1.51847 4.10622-3.47026"/><path d="m-236.97136 389.17767c-.21851.055-.45872.10687-.71955.15608-.26296.0492-.58729.073-.9751.073-.382 0-.76876-.0513-1.15922-.15502-.39047-.10317-.74231-.26983-1.05553-.49945-.31374-.2291-.57088-.5312-.76981-.90474-.20052-.37353-.29946-.83171-.29946-1.37191 0-.49628.0825-.93224.24602-1.30577.16349-.37407.39205-.68464.68358-.93437.29205-.24814.63913-.43331 1.04017-.55606.40105-.12328.83648-.18412 1.30578-.18412.29523 0 .58146.028.85976.0857.27883.0566.55713.12645.83489.20846l-.12168 1.23699c-.24603-.13703-.49046-.23808-.73278-.30316-.24391-.0656-.49628-.0984-.75765-.0984-.27354 0-.5185.046-.73701.13968-.21852.0921-.40528.22063-.56136.38411-.15608.16455-.27618.35978-.36084.58623-.0847.22591-.12592.473-.12592.74071 0 .2783.0471.52961.14338.75395.0947.22327.22592.41268.39258.56876.16666.15502.36719.27407.60157.35607.23491.0815.49099.12275.77035.12275.25078 0 .49945-.0286.74494-.0862.24603-.0566.47195-.12645.67935-.20846z"/><path d="m-231.48461 387.13869c0 .39364-.0603.73119-.18042 1.01584-.1201.28359-.28993.5185-.51109.70368-.22169.18624-.48623.3238-.79468.41374-.30846.091-.64866.13492-1.02008.13492-.37088 0-.71056-.0439-1.01954-.13492-.30793-.0899-.57247-.2275-.79415-.41374-.22116-.18518-.391-.42009-.5111-.70368-.1201-.28465-.18042-.6222-.18042-1.01584v-3.54592h1.52323v3.29249c0 .191.0148.3693.045.53596.0296.16719.0825.31375.15555.44231.0735.12804.17354.2291.29893.30264.12486.0741.28676.11111.48252.11111.19682 0 .35819-.037.48411-.11111.12593-.0735.22486-.1746.29894-.30264.073-.12856.12539-.27512.15555-.44231.0291-.16666.045-.34496.045-.53596v-3.29249h1.5227z"/><path d="m-229.19934 386.22983h.39258c.13121 0 .25396-.0127.36877-.0365.11428-.0254.21428-.0688.2984-.13121.0847-.0624.15185-.14497.20106-.24602.0487-.10053.0735-.22486.0735-.37195 0-.14814-.0249-.27089-.0735-.36824-.0492-.0984-.1164-.17777-.20106-.23809-.0841-.0598-.18412-.10264-.2984-.12645-.11481-.0254-.23756-.0376-.36877-.0376h-.39258zm-1.52376-2.63695h1.81793c.87934 0 1.52641.15185 1.94174.45448.41427.3037.6222.7767.6222 1.42112 0 .57882-.19947 1.03065-.59787 1.35498-.39945.32539-.95605.48729-1.67137.48729h-.58887v1.99781h-1.52376z"/><path d="m-273.71402 383.59277h1.55603l.73755 4.3898h.0164l.76875-4.3898h1.93275l.80261 4.3898h.0169l.74494-4.3898h1.4825l-1.27827 5.71621h-1.95655l-.81055-4.38927h-.0169l-.75289 4.38927h-1.97401z"/><path d="m-264.02619 386.45093c0 .23544.0243.46295.0741.6841.0487.22063.12434.41586.22857.58517.1037.16931.23755.30422.4021.40528.16349.10105.35925.15185.5894.15185.22856 0 .42644-.0508.58993-.15185.16348-.10106.29681-.23597.39998-.40528.10423-.16931.18095-.36454.23015-.58517.0487-.22115.0736-.44866.0736-.6841 0-.24497-.0249-.47882-.0736-.69945-.0492-.22115-.12592-.41533-.23015-.58252-.10317-.1656-.2365-.2984-.39998-.39681-.16349-.0984-.36137-.14656-.58993-.14656-.23015 0-.42591.0482-.5894.14656-.16455.0984-.2984.23121-.4021.39681-.10423.16719-.17989.36137-.22857.58252-.0497.22063-.0741.45448-.0741.69945m-1.57296 0c0-.45872.0619-.87087.18465-1.23647.12221-.36559.30422-.67564.54442-.92907.24021-.25396.53967-.44972.89627-.58569.35766-.13651.7714-.20529 1.24176-.20529.46877 0 .88251.0688 1.24017.20529.35766.13597.65659.33173.89679.58569.24021.25343.42168.56348.54496.92907.12275.3656.18359.77775.18359 1.23647 0 .4529-.0608.86241-.18359 1.22853-.12328.36613-.30687.67723-.54919.9333-.24285.25661-.54284.45343-.90103.5894-.3566.13703-.76875.20529-1.2317.20529-.47036 0-.88198-.0683-1.23753-.20529-.35343-.13597-.65289-.33279-.89626-.5894-.24285-.25607-.42645-.56717-.54866-.9333-.12275-.36612-.18465-.77563-.18465-1.22853"/><path d="m-257.76978 385.96798h.40052c.12063 0 .24761-.004.38094-.0127.13438-.008.25448-.0339.36083-.0772.10635-.0444.19523-.10952.2656-.19682.0714-.0878.10635-.21269.10635-.37724 0-.13068-.0307-.23809-.0942-.32274-.0624-.0847-.14391-.1492-.24497-.19259-.10105-.0434-.21851-.073-.35289-.0899-.13333-.0169-.27354-.0249-.42168-.0249h-.40052zm-1.5227-2.37505h2.71843c.25025 0 .48887.0291.71214.0857.22381.0577.42062.14708.58993.26718.16825.12011.30105.26931.39681.4492.0958.18094.14339.39363.14339.63913 0 .382-.09.69627-.2709.9423-.17935.24496-.45554.41162-.82642.49945v.0159c.1201.0323.21692.0841.29099.15608.0735.0709.13756.15926.19206.2656.055.10688.10476.22962.15132.36877.0471.13915.10529.29629.17724.47142l.55607 1.55497h-1.58778l-.32856-1.03118c-.0767-.24603-.1492-.44814-.21693-.60633-.0682-.15767-.14285-.28359-.22115-.37618-.0794-.0936-.16931-.15714-.27089-.19259-.10106-.036-.22169-.0534-.36348-.0534h-.31957v2.25971h-1.5227z"/><path d="m-253.80605 383.59277h1.5227v4.58609h2.35865v1.13012h-3.88135z"/><path d="m-247.86905 388.17871h.5894c.573 0 1.01266-.14444 1.31794-.43438.30581-.28888.45925-.71955.45925-1.29361 0-.57299-.15661-1.0042-.46771-1.2936-.3111-.28941-.74707-.43438-1.30948-.43438h-.5894zm-1.52376-4.58609h2.07983c.49733 0 .9534.0444 1.36768.13121.41533.0873.77087.23915 1.06927.45501.29682.21534.52962.50633.69575.87193.16666.36507.25025.82431.25025 1.37562 0 .53543-.0852.98568-.25448 1.35127-.16931.36613-.4037.66189-.70421.88834-.29999.22644-.65765.38993-1.07299.49098-.4148.10106-.86505.15185-1.35127.15185h-2.07983z"/><path d="m-292.15029 383.59277v5.71621h1.77878v-2.06448h1.28091l.45554-1.24916h-1.73645v-1.15764h2.15654l.45395-1.24493z" fill-rule="evenodd"/><path d="m-287.21638 389.30851h1.77878v-5.71621h-1.77878z" fill-rule="evenodd"/><path d="m-284.21341 383.59277v5.71621h1.77984v-2.06448h1.27985l.45554-1.24916h-1.73539v-1.15764h2.15548l.45448-1.24493z" fill-rule="evenodd"/><path d="m-277.05306 387.44249-.71162-2.38087-.68675 2.38087zm2.3232 1.86661h-1.79676l-.23227-.76823h-2.01052l-.22274.76823h-1.75127l2.08248-5.71622h1.84967z" fill-rule="evenodd"/></g></g></svg>